<svg width="107" height="40" viewBox="0 0 107 40" fill="none" xmlns="http://www.w3.org/2000/svg">
<circle cx="20" cy="20" r="20" fill="#28B889"/>
<path d="M8.8331 8.90909H14.3324L20.1406 23.0795H20.3878L26.196 8.90909H31.6953V30H27.37V16.2724H27.195L21.7369 29.897H18.7915L13.3335 16.2209H13.1584V30H8.8331V8.90909Z" fill="#FDFFFF"/>
<path d="M47.8963 31V9.18182H52.5092V27.1967H61.8629V31H47.8963ZM69.4988 31.3089C68.4547 31.3089 67.5243 31.1278 66.7076 30.7656C65.8908 30.3963 65.2445 29.853 64.7686 29.1357C64.2999 28.4112 64.0655 27.5092 64.0655 26.4297C64.0655 25.5206 64.2324 24.7571 64.5662 24.1392C64.9 23.5213 65.3546 23.0241 65.9299 22.6477C66.5051 22.2713 67.1586 21.9872 67.8901 21.7955C68.6287 21.6037 69.4029 21.4688 70.2125 21.3906C71.1642 21.2912 71.9313 21.1989 72.5137 21.1136C73.0961 21.0213 73.5186 20.8864 73.7814 20.7088C74.0442 20.5312 74.1756 20.2685 74.1756 19.9205V19.8565C74.1756 19.1818 73.9625 18.6598 73.5364 18.2905C73.1174 17.9212 72.5208 17.7365 71.7466 17.7365C70.9299 17.7365 70.28 17.9176 69.7971 18.2798C69.3141 18.6349 68.9945 19.0824 68.8382 19.6222L64.6408 19.2812C64.8539 18.2869 65.2729 17.4276 65.8979 16.7031C66.5229 15.9716 67.329 15.4105 68.3162 15.0199C69.3105 14.6222 70.4611 14.4233 71.7679 14.4233C72.677 14.4233 73.5471 14.5298 74.378 14.7429C75.2161 14.956 75.9583 15.2862 76.6046 15.7337C77.258 16.1811 77.7729 16.7564 78.1493 17.4595C78.5257 18.1555 78.714 18.9901 78.714 19.9631V31H74.41V28.7308H74.2821C74.0194 29.2422 73.6678 29.6932 73.2275 30.0838C72.7871 30.4673 72.258 30.7692 71.6401 30.9893C71.0222 31.2024 70.3084 31.3089 69.4988 31.3089ZM70.7985 28.1768C71.4661 28.1768 72.0556 28.0455 72.5669 27.7827C73.0783 27.5128 73.4796 27.1506 73.7708 26.696C74.062 26.2415 74.2076 25.7266 74.2076 25.1513V23.4148C74.0655 23.5071 73.8702 23.5923 73.6216 23.6705C73.3801 23.7415 73.1067 23.8089 72.8013 23.8729C72.4959 23.9297 72.1905 23.983 71.8851 24.0327C71.5797 24.0753 71.3027 24.1143 71.0542 24.1499C70.5215 24.228 70.0563 24.3523 69.6586 24.5227C69.2608 24.6932 68.9519 24.924 68.7317 25.2152C68.5115 25.4993 68.4015 25.8544 68.4015 26.2805C68.4015 26.8984 68.6252 27.3707 69.0726 27.6974C69.5272 28.017 70.1025 28.1768 70.7985 28.1768ZM82.3201 31V9.18182H86.8585V17.3849H86.997C87.1958 16.9446 87.4835 16.4972 87.8599 16.0426C88.2434 15.581 88.7406 15.1974 89.3514 14.892C89.9693 14.5795 90.7363 14.4233 91.6525 14.4233C92.8457 14.4233 93.9466 14.7358 94.9551 15.3608C95.9636 15.9787 96.7697 16.9126 97.3734 18.1626C97.9771 19.4055 98.2789 20.9645 98.2789 22.8395C98.2789 24.6648 97.9842 26.206 97.3947 27.4631C96.8123 28.7131 96.0169 29.6612 95.0083 30.3075C94.0069 30.9467 92.8848 31.2663 91.6419 31.2663C90.7612 31.2663 90.0119 31.1207 89.394 30.8295C88.7832 30.5384 88.2825 30.1726 87.8919 29.7322C87.5012 29.2848 87.2029 28.8338 86.997 28.3793H86.7946V31H82.3201ZM86.7626 22.8182C86.7626 23.7912 86.8975 24.6399 87.1674 25.3643C87.4373 26.0888 87.8279 26.6534 88.3393 27.0582C88.8507 27.456 89.4721 27.6548 90.2037 27.6548C90.9423 27.6548 91.5673 27.4524 92.0787 27.0476C92.59 26.6357 92.9771 26.0675 93.2399 25.343C93.5098 24.6115 93.6447 23.7699 93.6447 22.8182C93.6447 21.8736 93.5133 21.0426 93.2505 20.3253C92.9877 19.608 92.6007 19.0469 92.0893 18.642C91.5779 18.2372 90.9494 18.0348 90.2037 18.0348C89.465 18.0348 88.84 18.2301 88.3287 18.6207C87.8244 19.0114 87.4373 19.5653 87.1674 20.2827C86.8975 21 86.7626 21.8452 86.7626 22.8182Z" fill="#FDFFFF"/>
</svg>

